<?xml version="1.0"?><svg width="640" height="480" xmlns="http://www.w3.org/2000/svg">
 <title>hibiscus</title>
 <metadata id="metadata8159">image/svg+xml</metadata>
 <g>
  <title>Layer 1</title>
  <path fill="#3f7f00" id="path6662" d="m123.48877,415.330597c-11.231689,-1.251831 -21.030518,-9.487122 -24.96521,-19.971741c-2.841187,-6.675903 -5.384888,-13.94751 -4.517212,-21.298889c0.571411,-1.764282 1.062012,-5.664551 2.527222,-2.188904c6.947388,9.951233 15.817497,18.878662 26.771973,24.327087c6.667603,3.391479 14.513672,3.969849 21.749023,2.331787c3.118286,-0.819885 8.778564,-2.769531 6.635864,-6.992554c-1.970215,-3.2052 -6.214111,-3.438049 -9.506714,-4.450684c-9.416626,-1.939697 -19.827759,-1.34198 -28.054688,-7.081787c-4.154655,-2.793701 -7.4198,-6.637146 -10.967155,-10.11853c6.496086,-0.271484 13.763786,-0.910889 18.468376,-5.98114c2.727783,-2.651794 4.237549,-6.270935 6.914185,-8.966003c4.725952,-2.379883 10.129272,0.005981 14.519775,2.065247c6.728516,3.265869 12.551514,8.628601 15.542236,15.564636c3.909546,7.697021 7.190063,15.719238 9.795776,23.948303c0.63147,4.214172 -2.972168,7.492859 -5.88562,9.97229c-9.396851,7.205322 -21.668213,9.447754 -33.265869,9.293274c-1.926514,-0.058228 -3.850342,-0.207275 -5.761963,-0.452454l0,0.000061zm-61.41333,66.85498c-12.294308,-6.732117 -20.99744,-19.805237 -22.056889,-33.836243c-0.859249,-10.242554 1.4795,-21.274597 8.27515,-29.223938c3.107418,-3.393433 7.24255,-5.917969 11.784058,-6.797424c-0.903809,5.722839 -3.91394,10.844788 -4.966068,16.542725c-2.252071,9.194946 -3.452759,19.458435 0.817871,28.263489c1.241089,2.980286 6.223999,9.409973 8.613895,4.243896c1.628906,-5.145386 1.181152,-10.681152 1.481445,-16.016541c0.413208,-12.619263 0.687614,-25.734741 5.857544,-37.477295c2.239136,-4.490051 5.886353,-9.040588 11.043701,-10.052185c4.927376,0.030396 8.11084,4.632141 10.559082,8.344788c6.096069,10.42804 5.050171,23.455505 0.948853,34.39917c-4.716309,13.952454 -15.51001,24.657104 -21.566772,37.912537c-0.353027,4.209839 -4.076538,7.928894 -8.083366,4.921692c-0.918102,-0.373596 -1.815552,-0.795166 -2.708504,-1.224609l0,-0.000061z" transform="rotate(49.917999267578125 104.1620025634766,419.03900146484375) "/>
  <path transform="rotate(25.24329948425293 378.78201293945324,203.25900268554696) " fill="#abc837" d="m464.571991,316.738007c-29.822998,7.018982 -61.365997,21.384979 -91.971985,9.833984c-7.428009,1.813019 -32.622009,-6.019989 -15.158997,-11.632996c11.304993,-4.449982 38.360992,-2.026001 40.360992,-4.60199c-12.746002,-3.471008 -34.998016,1.087006 -42.130005,-2.020996c33.429993,-19.802002 78.847992,-16.061005 108.899994,8.421997zm8.56601,-55.535004c-17.743988,14.751007 -38.084991,33.746002 -63.166016,29.151001c-10.922974,-2.671997 -32.925995,5.812988 -37.389984,-2.317993c15.559998,-9.928009 34.376007,-11.63501 51.522003,-17.486023c-14.665009,-5.161987 -29.161011,4.186005 -43.761993,4.134003c9.757996,-10.609985 33.132996,-17.042999 50.315979,-18.102997c14.283997,-0.957993 28.732025,0.636017 42.480011,4.622009m7.39801,-43.505005c-17.673004,12.820999 -32.89502,34.169998 -56.951996,33.598007c-9.175018,-3.021011 -29.086029,11.120987 -31.317017,0.845993c14.373993,-9.936996 31.108002,-15.718002 47.875,-20.162003c-17.381989,1.378998 -34.463989,6.123001 -50.160004,13.695007c23.138,-23.484009 58.279999,-33.721008 90.554016,-27.977005m-94.220001,-99.108002c16.765991,58.833008 4.380981,124.31601 -28.640015,175.234009c-20.77298,27.472992 -50.200989,46.98999 -80.992004,61.622986c1.263,-15.860992 19.785004,-17.023987 30.83902,-23.289001c11.761993,-9.504974 23.498993,-19.589996 33.517975,-31.17099c32.629028,-38.859985 48.752014,-90.102005 49.653015,-140.427994c-0.050995,-14.409012 -1.665009,-28.825012 -4.996002,-42.850006l0.359009,0.150002l0.259003,0.730995l0,0zm31.707001,253.928009c-30.792999,-2.64502 -63.901001,0.257996 -91.722015,-15.738007c-16.188995,5.763 -16.494995,-22.424988 -0.078003,-13.519989c18.542999,-1.025024 36.975006,3.380981 54.143005,10.115997c-18.442993,-12.606995 -41.667999,-15.072998 -63.444,-13.929993c31.549011,-13.867004 74.446991,-7.20401 94.035004,23.115997c2.471985,3.233978 4.802002,6.573975 7.06601,9.955994l0,0zm-127.53302,-198.62001c32.294006,0.728012 66.901001,21.873001 72.846008,55.391998c7.01001,6.786011 -4.408997,26.802994 -6.591003,9.261002c-7.251984,-15.366989 -17.536987,-29.945999 -32.143982,-39.088989c15.738983,20.132996 31.639984,43.862991 29.207977,70.656006c-5.286987,-25.157013 -26.682983,-41.387009 -42.889984,-59.517014c-8.746002,-11.007996 -15.881012,-23.373993 -20.429993,-36.703003m1.645996,38.85701c28.643005,12.993988 52.816986,43.68399 47.209991,76.466003c-12.294006,-6.701996 -5.153015,-36.099014 -19.821991,-34.671005c5.401978,13.685989 8.757996,28.39299 6.760986,43.229996c-0.618011,7.131989 -6.343994,25.653992 -6.380981,9.388c-5.496002,-32.588989 -29.580017,-60.311996 -27.769012,-94.412994m-25.695007,26.410995c23.131012,14.059006 45.904999,37.64299 43.516998,66.758011c4.395996,10.011993 -16.067993,27.360992 -11.050995,8.203003c2.019989,-14.278015 -6.161011,-38.366028 -11.437012,-43.76001c8.294006,19.02301 7.132019,40.585999 3.049011,60.484009c0.752014,-30.966003 -30.182983,-54.103027 -24.600006,-85.75502l0.208008,-2.969986l0.316986,-2.960007m225.880005,-53.809998c-22.289001,12.807999 -43.803986,29.294998 -69.977997,32.89299c-5.734009,5.939011 -27.178009,5.480011 -10.959991,-3.118988c7.859985,-7.091003 32.902985,-15.350006 31.613007,-19.085999c-14.029022,3.380997 -26.843018,10.30899 -40.604004,14.508987c20.763,-25.225998 59,-42.453995 89.928986,-25.196991l0,0zm-16.237,-45.589996c-19.075989,25.212997 -46.886993,41.399994 -73.449982,57.541992c9.829987,-17.582993 26.738983,-29.335999 42.419983,-41.261993c-13.450989,-0.279007 -26.908997,27.373001 -35.873993,17.516998c11.391998,-24.923996 41.320007,-34.686005 66.903992,-33.796997l0,0zm-5.097992,-47.729706c-2.174988,23.322701 -19.149994,43.172699 -40.184998,52.353699c-9.403992,5.152008 -21.406006,21.430008 -26.580994,22.856003c6.324982,-17.595001 19.759003,-31.106003 31.427002,-45.242004c-14.482025,6.369995 -20.503021,23.376999 -35.106018,29.569c3.734009,-33.971001 36.899994,-60.236496 70.445007,-59.536697l0,0zm-37.951996,-34.087502c0.316986,20.2864 -6.216003,41.613899 -21.437012,55.652199c-0.225006,10.056999 -16.167999,14.876999 -8.175995,1.066002c2.471008,-5.551003 8.944,-19.425003 4.856018,-20.025398c0.393982,7.389397 -14.406006,23.876396 -10.91803,7.026398c4.620026,-18.941902 18.501007,-34.884796 35.675018,-43.7192zm-68.580994,-23.948799c18.718994,6.647499 35.468994,26.144699 30.882996,46.965897c5.059998,7.814507 -11.966003,16.280205 -6.516998,4.067406c2.406982,-7.373802 -12.299011,-32.623802 -5.696014,-12.945c4.529999,5.969597 1.897003,32.435699 -5.60199,17.460396c-7.740997,-17.390198 -15.808014,-36.055397 -13.067993,-55.548698l0,0zm-62.101013,109.360992c36.098999,-2.109985 70.713989,27.860001 73.914001,63.855011c-7.298004,-11.197998 -19.108002,-32.363998 -26.901001,-34.733002c12.580994,15.106003 20.567993,33.561996 25.279999,52.528c-13.838989,-23.979996 -36.161987,-41.087997 -56.682007,-58.908997c-5.890991,-7.085007 -10.703979,-14.968002 -15.610992,-22.741013l0,0zm82.282013,25.520004c-11.688019,-14.11499 -22.654022,-30.207001 -39.848999,-38.076996c17.121979,14.787003 30.541992,34.278 36.55899,56.207993c-14.471008,-20.98999 -35.835999,-35.507996 -54.553009,-52.258987c-13.345001,-8.467003 -9.651001,-32.986008 8.424011,-22.539009c24.656982,9.167 41.145996,32.584007 49.419006,56.667zm-63.138,-95.845299c32.319,0.724602 61.289001,29.628304 61.738983,62.017296c-6.869995,-6.235001 -16.237,-27.654991 -21.479004,-25.123993c4.150024,6.523003 18.429016,24.212997 12.551025,26.436996c-16.299011,-15.800995 -40.799011,-26.201996 -46.858002,-50.069794c-1.999023,-4.411804 -4.545013,-8.598602 -5.953003,-13.260513l0,0l0,0.000008z" id="path3416-4"/>
  <g fill="#cdde87" id="g4206">
   <g fill="#cdde87" id="g4208">
    <g fill="#cdde87" id="g4214">
     <g fill="#cdde87" id="g4216">
      <path fill="#cdde87" d="m464.312286,404.474426c2.86499,-0.20752 5.039978,-3.132477 5.966248,-8.026276c0.440002,-2.318726 0.636292,-4.611267 0.636292,-6.855011c0,-17.08252 -11.412567,-31.333771 -14.066315,-33.304962c0.003754,0.007477 0.018768,0.043701 0.018768,0.043701c2.231232,4.141235 3.02002,7.967529 3.02002,11.600037c0,4.476257 -1.19873,8.655029 -2.375031,12.758728c-1.061249,3.69873 -2.08252,7.258759 -2.08252,10.787506c0,1.705017 0.2388,3.402466 0.826263,5.106262c1.701294,4.943787 4.937531,8.115021 8.056274,7.890015m49.942535,14.813782c1.714905,-0.292511 2.832458,-2.596283 2.781189,-5.731293l0,-0.001221c-0.384949,-23.548737 -7.757446,-35.889954 -10.398682,-37.721252c-0.321259,-0.222473 -0.445007,-0.193787 -0.446228,-0.193787c-0.0625,0.059967 -0.175018,0.618744 0.502472,2.227478c3.775024,8.978729 2.546234,15.577484 1.462463,21.399994c-0.806274,4.327484 -1.567444,8.416229 -0.096191,12.828766c1.913757,5.761261 4.533661,7.473755 6.194977,7.191223m-3.431244,-165.790024c10.130035,18.576279 13.282501,31.117477 9.638763,38.342514c-5.346252,10.579987 -18.718811,18.022552 -29.462524,24.002533c-9.78125,5.445038 -18.22876,10.146271 -17.28125,15.211273c0.432495,2.308716 1.915039,3.94751 4.175018,4.615021c4.064941,1.200012 9.412476,-0.89502 13.619995,-5.335022l2.203766,-2.507477c10.12619,-11.836243 37.023682,-43.277496 88.046204,-3.694977c0.091187,0.070038 0.13623,0.184998 0.117432,0.298767c-2.411133,14.227509 -16.147461,21.802521 -38.681152,21.331238c-10.538818,-0.216217 -16.986206,3.231293 -17.131226,6.688782c-0.116333,2.773743 4.061157,6.286224 16.218689,7.056274c6.102478,0.386261 12.502502,-0.494995 19.277527,-1.428772c20.513733,-2.825012 41.726257,-5.746216 57.75,25.817505c0.047485,0.091248 0.044983,0.201263 -0.005005,0.292511c-0.096252,0.173706 -9.938721,17.259979 -37.523682,2.947449c-12.566284,-6.52121 -16.273804,-5.894989 -17.365051,-4.942474c-0.940002,0.821228 -0.535095,2.322479 -0.317566,2.929993c1.483765,4.136292 7.615112,6.920013 14.715088,10.142517c11.217468,5.092468 25.179932,11.429993 30.248718,26.484985c5.455017,16.20874 -4.724976,34.316254 -10.509949,40.556274c-0.086304,0.09375 -0.220093,0.125031 -0.338867,0.080017c-1.891113,-0.713806 -4.174927,-1.251282 -6.819946,-1.873779c-7.342468,-1.727448 -17.398682,-4.093781 -26.61499,-12.643738c-9.72998,-9.023743 -11.755005,-18.291229 -13.898804,-28.102478c-1.844971,-8.444977 -3.752441,-17.177521 -10.905029,-26.122528c-5.506165,-6.877502 -9.157471,-5.358734 -10.146118,-4.72998c-1.892578,1.204987 -2.48877,3.942474 -1.357605,6.231232c15.87384,32.153778 9.066345,38.811249 -1.238708,48.887482c-3.476257,3.398743 -7.41626,7.252502 -10.944946,12.642517c-0.048767,0.071259 -0.125061,0.119995 -0.210083,0.134949c-0.084961,0.015045 -0.178711,-0.007477 -0.243774,-0.059967l-4.044983,-3.082489c-9.192444,-6.941223 -17.876221,-13.497467 -21.753693,-25.458771c-2.60498,-8.032532 0.661224,-17.424988 3.819946,-26.504974c2.27005,-6.522522 4.412537,-12.682495 4.318787,-18.033752c-0.146271,-8.225006 -9.099976,-19.368744 -16.054993,-22.38501c-1.642456,-0.711212 -3.91626,-1.275024 -5.422516,0.084991c-2.096252,1.891235 -4.436188,7.091217 3.450012,20.67627c14.21875,24.498749 0.218719,43.420013 -9.045044,55.942535c-5.482483,7.407532 -9.442444,12.76123 -6.173706,16.299957c0.098724,0.106293 0.110016,0.266266 0.029999,0.386292c-0.081268,0.119995 -0.233704,0.168762 -0.370026,0.117493c-0.327454,-0.123749 -32.726227,-12.586212 -32.906189,-33.833771c-0.106293,-12.637482 6.484985,-25.165039 11.78244,-35.230042c3.567505,-6.779999 6.648804,-12.634949 6.39505,-16.312469c-0.366302,-5.400024 -1.521301,-8.626251 -3.53006,-9.863739c-2.298737,-1.41626 -5.52002,-0.061279 -8.634949,1.251221c-2.063751,0.867462 -4.013733,1.688751 -5.757507,1.781219c-1.831299,0.100037 -3.306274,-1.493744 -3.590027,-3.876251c-0.331268,-2.795044 1.117493,-6.13504 5.082489,-6.8638c0,-0.001221 5.371246,-1.19751 5.371246,-1.19751c14.102539,-3.410034 33.417511,-8.079987 84.661285,22.303772c35.173767,20.856262 56.42749,40.27002 63.171204,57.701263c0.241272,0.625 0.465027,1.192474 0.593811,1.321259c0.002502,-0.048737 0.064941,-0.152496 0.108704,-0.374969c0.001282,-0.01123 0.018738,-0.116272 0.018738,-0.32373c0,-2.206268 -1.847534,-15.992493 -42.233765,-51.333771c-1.512451,-1.322479 -2.273743,-2.468719 -2.273743,-3.418732c0,-0.230011 0.044983,-0.448761 0.133728,-0.654968c0.787537,-1.827484 4.962524,-2.102509 8.298706,-1.782532l3.940063,0.568756c7.425049,1.158752 22.876221,3.572479 26.888794,0.422516c0.565002,-0.442505 0.86499,-0.966248 0.919983,-1.601257c0.053711,-0.638733 -0.14624,-1.179962 -0.611267,-1.653748c-3.068726,-3.126221 -16.484985,-2.251282 -26.279968,-1.612457l-8.60498,0.441284c-8.188782,0.102448 -40.305084,-2.702484 -47.827606,-18.28125c-1.124939,-2.330017 -1.196198,-4.472504 -0.212463,-6.367493c3.302521,-6.36499 17.917572,-8.779999 28.588776,-10.543762c4.652527,-0.768738 8.669983,-1.432495 10.469971,-2.227478c6.202454,-2.227478 15.370056,-6.367493 15.286255,-8.672485c-0.008728,-0.256256 -0.330017,-0.47995 -0.596252,-0.622467c-4.36377,-2.318726 -26.411255,-1.368713 -35.578735,4.349976c0,0.001221 -5.219971,3.656219 -5.219971,3.656219c-9.641266,7.087494 -22.845062,16.794983 -50.797577,12.287537l-2.539978,-0.283752c-3.311218,-0.30249 -7.066193,-0.644989 -7.71994,-3.02002c-0.642548,-2.33252 1.078705,-7.304993 23.34494,-23.48877c7.271271,-5.287476 19.715057,-20.804962 19.628754,-27.363739c-0.014954,-1.08252 -0.359955,-1.839966 -1.054993,-2.317505c-0.716248,-0.491241 -1.722473,-0.593719 -2.98996,-0.303711c-6.638794,1.517487 -20.066223,14.068756 -30.183777,31.701263c-11.763763,20.502472 -26.551208,30.16626 -35.98999,30.648743c-1.228729,0.063782 -1.935059,-0.191284 -2.158752,-0.777527c-0.698761,-1.828766 4.309998,-6.057495 10.931244,-11.39624l3.847504,-3.180023c8.014984,-7.17749 10.079956,-14.661255 13.828735,-28.248749l0.251251,-0.906219c10.043793,-36.331238 17.336273,-49.282532 59.686279,-51.957474c0.119995,-0.007477 0.234985,0.055008 0.293732,0.162506" id="path4224"/>
     </g>
    </g>
   </g>
  </g>
  <g fill="#89a02c" id="g3876">
   <g fill="#89a02c" id="g3878">
    <g fill="#89a02c" id="g3884">
     <g fill="#89a02c" id="g3886">
      <path fill="#89a02c" d="m257.644379,110.507202c-5.391266,-4.318771 -11.503693,-9.213715 -20.024963,-10.318756c-1.567459,-0.203781 -1.708755,-0.567474 -1.709976,-0.571213l0,-0.003738c0,-0.017471 0.024948,-0.08873 0.166245,-0.196228c1.862411,-1.437531 16.218719,-3.010025 36.234985,8.461227c3.086243,1.77002 4.839996,5.189972 3.908752,7.622528c-0.786194,2.053757 -3.287506,2.793732 -6.861267,2.03125c-4.016266,-0.859985 -7.756287,-3.85498 -11.713776,-7.024994m-48.541275,19.528732c5.318832,-0.441284 18.877487,-0.436249 29.885025,9.122467c3.740021,3.250046 5.242462,6.673737 4.018707,9.161301c-1.176224,2.387466 -4.686203,3.373718 -8.947449,2.512512c-4.787521,-0.966339 -8.348694,-4.641342 -12.11998,-8.531342c-5.10376,-5.264969 -10.385056,-10.703735 -19.51004,-10.956192c0.839996,-0.38002 3.062515,-1.008759 6.673737,-1.308746m-17.283707,40.412521c-1.980057,-1.620026 -3.543777,-2.901306 -3.759995,-4.461288c-0.041275,-0.284958 0.059967,-0.50499 0.318756,-0.691223c1.384964,-1.003799 6.147461,-0.476303 11.029968,1.910019c3.88504,1.898804 12.96875,7.617493 13.38623,19.676285c0.057526,1.728668 -2.532501,5.053711 -5.288696,5.407486c-2.618713,0.33493 -4.653778,-2.120056 -5.731201,-6.915054c-1.863785,-8.302536 -6.54007,-12.131271 -9.954987,-14.926224m-57.972565,-71.260071l-0.007477,0l0.007477,0zm108.022537,-53.789978c-1.729965,6.055 -3.364944,11.776276 -5.893784,16.650009c-4.802475,9.251259 -9.008713,11.303787 -11.148682,10.251236c-2.93251,-1.44249 -3.512573,-8.553772 0.66246,-17.528755c8.583755,-18.46627 7.590027,-33.422474 -2.798767,-42.111294c-0.093765,-0.078728 -0.22377,-0.094978 -0.33371,-0.042488c-50.026321,23.65501 -34.905014,60.787502 -29.211273,74.766232l1.183777,3.007507c2.37999,6.695023 1.20491,11.908722 -1.015091,14.107513c-1.316223,1.30127 -2.982407,1.632538 -4.821167,0.957489c-4.362488,-1.603775 -5.011292,-10.830002 -5.76004,-21.51252c-0.822449,-11.723793 -1.848755,-26.313789 -8.283768,-35.731285c-4.393768,-6.428757 -15.490036,-9.729996 -33.924942,-10.090027c-0.132523,-0.002518 -0.253754,0.080032 -0.298767,0.205002c-13.318787,36.368721 -5.713806,48.51754 19.414978,73.963776c9.223709,9.337463 9.326248,9.671249 11.963806,18.215027l0.550003,1.772537c0.851212,2.734985 0.598755,5.008774 -0.708771,6.402512c-1.165009,1.240005 -3.127518,1.707535 -5.125046,1.220016c-2.512512,-0.612488 -4.438705,-2.486267 -5.153656,-5.012512c-9.869995,-34.873734 -25.79628,-35.699997 -27.243805,-35.701218c-8.946228,-6.099998 -29.564972,2.324982 -33.820045,5.592499c-0.116188,0.091248 -0.154945,0.251236 -0.089951,0.384979c1.402527,2.900009 8.30246,26.92627 8.371201,27.167511c7.408836,20.188751 14.160011,24.049988 22.89254,27.302475c6.091232,2.27005 11.480026,2.303772 18.603745,0.113754c10.367508,-3.182449 14.785004,1.291275 17.158737,3.693771c0.97496,0.987473 1.679993,1.701202 2.342453,1.136246c0.237503,-0.202484 0.491333,-0.601273 0.360031,-1.355057c-0.465012,-2.681198 -5.556259,-8.31871 -15.006256,-11.899948c-17.183762,-6.521301 -27.701263,-20.288773 -30.293732,-27.433777c-0.523834,-1.443787 -0.548782,-2.245026 -0.397568,-2.51503c0.438843,-0.780029 1.31134,-1.203766 2.594986,-1.257477c6.63002,-0.278778 22.927551,9.714966 34.403763,26.626205c3.6763,5.413818 7.212524,7.867508 10.512543,7.29126c5.400009,-0.94368 7.981262,-9.472504 8.643799,-12.063751c2.203674,-8.618698 -0.617523,-24.417496 -15.142593,-42.912445c-9.942474,-12.667465 -12.747421,-26.998749 -11.14624,-34.953766c0.482559,-2.39624 1.343842,-4.04747 2.425003,-4.648743c0.475082,-0.263748 1.100006,-0.193787 1.856308,0.211266c6.296158,3.367455 18.38501,27.173759 19.069977,35.638725c1.9487,24.153748 9.533768,27.926254 11.812515,28.507538c2.143707,0.546265 4.233704,-0.27626 5.458755,-2.142487c14.976273,-22.896271 10.43251,-39.986267 7.4263,-51.293716c-0.798798,-3.004997 -1.4888,-5.598755 -1.757507,-7.913742c-1.13884,-9.840012 7.231216,-23.567505 11.003723,-26.107483c0.565033,-0.38002 1.017532,-0.512466 1.272507,-0.372467c1.852493,1.016235 1.792526,10.579987 1.30127,16.761246c-0.026245,1.887512 -0.966339,5.533752 -2.052536,9.75502c-2.522507,9.797516 -5.978699,23.21624 -1.940002,28.842461c1.142502,1.59127 2.828751,2.480019 5.011215,2.639999c14.843826,1.090019 26.693802,-23.98246 29.972519,-31.693718l1.245056,-2.981262c3.39743,-8.188789 9.71994,-23.431244 14.247528,-24.732521c0.601196,-0.172493 1.134918,-0.083763 1.634949,0.271233c4.162445,2.962494 -5.192474,17.43499 -9.188751,23.615028l-1.892487,3.008736c-1.348785,2.39624 -2.844971,6.506264 -1.44873,8.006287c0.722412,0.774994 2.033691,0.719978 3.901215,-0.159988c42.182526,-19.888763 59.080048,-12.747498 60.867554,-11.867523c0.78125,0.383759 1.044983,0.647499 1.149872,0.794983c-0.30127,0.017471 -0.917511,-0.045013 -1.588715,-0.113754c-19.821259,-2.08374 -44.686218,6.612473 -73.903748,25.843735c-43.512497,28.641281 -59.496231,72.648697 -65.152435,96.331253c-0.807495,3.358765 1.004944,5.347519 1.82251,6.046219c1.289978,1.105042 2.921219,1.532593 4.056244,1.063766c0.747452,-0.307465 1.19751,-0.976181 1.27121,-1.879959c0.066299,-0.792542 0.636215,-2.611237 1.983719,-3.178787c1.062546,-0.447464 2.393799,-0.02121 3.947525,1.266251c1.871262,1.546249 1.534958,4.777527 1.111298,8.87001c-0.559998,5.401306 -1.256332,12.122498 2.92366,18.128815c5.752563,8.272476 13.372498,13.217453 22.65007,14.696182c12.502518,1.992493 24.073715,-3.049988 27.718719,-5.803741c0.079956,-0.060043 0.129944,-0.149994 0.129944,-0.248795c-0.001221,-0.098724 -0.043732,-0.187454 -0.123688,-0.246201l-0.882553,-0.646286c-3.298721,-2.34375 -9.439926,-6.708679 -9.536209,-26.407471c-0.101242,-21.346207 -17.543716,-35.825043 -26.476212,-37.279968c-4.461288,-0.727539 -7.278748,-2.101288 -8.613739,-4.19754c-1.028748,-1.616211 -1.173782,-3.659973 -0.445023,-6.248779c0.492477,-1.752472 1.488724,-2.931213 2.958755,-3.502426c2.618713,-1.016235 6.712494,-0.048752 10.957489,2.58873c2.772522,1.721344 6.087494,6.686249 9.9263,12.436295c6.214905,9.30748 13.947449,20.891266 24.333725,26.952515c16.936249,9.887466 38.672485,-11.136246 38.889984,-11.350021c0.101257,-0.098724 0.123749,-0.253677 0.053741,-0.376205c-0.069977,-0.123749 -0.213715,-0.185013 -0.351196,-0.148697c-3.967499,1.033707 -6.766266,-4.773788 -10.641235,-12.810059c-6.547546,-13.582458 -16.442505,-34.107437 -41.06752,-33.867493c-13.620071,0.133743 -16.892548,-4.262466 -17.631302,-6.894989c-0.581207,-2.078781 0.979996,-3.827515 2.391281,-4.927521c5.19371,-4.049988 16.626205,-5.993729 23.032455,-2.332535c4.249939,2.428741 9.099976,7.779999 14.236298,13.446274c7.389984,8.153763 15.031219,16.586227 22.389984,18.223724c10.92749,2.433777 19.308685,-1.68869 28.180023,-6.049957l3.901215,-1.893768c0.07489,-0.037537 0.134888,-0.10498 0.162476,-0.187531c0.024963,-0.081253 0.017426,-0.169983 -0.022583,-0.24498c-2.681274,-4.907532 -4.44989,-9.609985 -6.159882,-14.157486c-5.628754,-14.972534 -10.074982,-26.798782 -42.461334,-28.871231c-2.334961,-0.149986 -4.33493,-2.097466 -4.459961,-4.342499c-0.157471,-2.826233 2.617462,-5.022507 7.422455,-5.872498c9.670044,-1.708755 18.637573,1.165009 27.308807,3.941269c10.26001,3.287506 19.951263,6.392517 30.688782,2.568741c10.15625,-3.616249 15.707397,-10.84877 19.76001,-16.127472c1.457489,-1.898727 2.716125,-3.538742 3.967499,-4.766228c0.088654,-0.08622 0.117401,-0.216225 0.075012,-0.331276c-2.702515,-7.388763 -14.881378,-28.676224 -30.192596,-31.896286c-13.821167,-2.903751 -25.431213,6.621246 -34.758759,14.276283c-5.887421,4.830009 -10.971222,9.001228 -14.763702,8.286278c-0.568756,-0.107498 -1.923737,-0.487518 -2.208801,-1.699982c-0.388702,-1.661217 1.073761,-5.090027 10.246277,-11.998749c21.388794,-16.10878 11.788727,-31.849972 11.368713,-32.511211c-0.05368,-0.08622 -0.146179,-0.139999 -0.247498,-0.145039c-30.921143,-1.597523 -36.346191,17.38625 -41.594986,35.746231" id="path3894"/>
     </g>
    </g>
   </g>
  </g>
  <path fill="#aaaaff" d="m109.878418,374.77475c-6.395508,-5.366882 -6.21228,-20.184265 -18.247314,-14.902161c-11.619637,-1.338928 -14.39843,-15.965332 -8.912354,-24.641541c4.692871,-9.621338 13.935791,-16.288025 17.823853,-26.380188c-9.148926,-4.994324 -13.784065,7.712463 -16.602425,14.217529c-4.44738,9.374451 -8.86084,20.737061 -19.12841,24.947937c-11.859497,3.709229 -7.560429,-16.039429 -17.161617,-12.460754c-9.685921,3.379028 -15.579113,-7.27887 -7.39307,-13.19989c0.1698,-10.564758 1.348881,-21.829468 12.465328,-26.908936c13.734135,-9.375854 32.027592,-11.82959 47.682255,-6.132202c-7.358032,7.179321 -20.233765,2.945068 -27.736816,10.656372c-7.695679,8.135864 4.777344,16.425232 11.757935,9.220886c7.482536,-1.967896 20.561157,-16.73114 24.884636,-5.56842c-3.75647,6.963196 -13.946899,22.256897 1.0448,22.899048c9.471443,-3.374084 10.522224,15.493652 18.531258,6.277344c4.960815,-9.08844 -3.966301,-17.33905 -4.331543,-26.510742c2.361702,-10.832336 5.441772,5.205872 7.355835,9.026184c5.983643,13.10199 19.301025,24.097778 17.751099,39.774109c-4.24707,8.966736 -15.140259,12.055298 -20.140503,20.634399c-5.577271,4.394714 -14.981445,5.266357 -19.643059,-0.948975l0.000114,0zm-8.094475,-110.632446c-18.518196,-2.497437 -38.838875,-11.840714 -45.268192,-30.745438c-4.513309,-10.497314 11.229252,-14.009644 5.989868,-23.386658c-0.606209,-11.695801 14.925289,-19.285706 23.315914,-10.715027c7.009888,7.369446 15.88221,-5.905396 22.200684,4.279114c7.775391,8.169067 4.604736,19.364197 3.564575,29.190186c-0.277954,9.052368 1.802856,18.027649 4.985596,26.455276c-6.126335,2.392517 -8.114021,-12.508255 -12.237801,-16.699051c-3.412094,-6.787842 -8.177605,-18.18158 -17.745476,-14.761658c-6.430168,6.921143 2.779541,15.992371 5.7771,22.761902c2.460815,4.090897 18.947021,12.609268 9.417847,13.621292l0,0l-0.000114,0.000061zm66.79528,-11.598526c-11.901733,5.689102 -21.626587,15.020767 -29.839478,25.187088c8.921265,3.695862 15.224487,-11.520935 23.733398,-5.586914c1.961304,4.824402 -2.805664,10.900574 5.887451,9.867065c11.127197,-3.904846 16.527344,13.336975 4.517334,15.048096c-6.272217,1.809204 -18.161377,-7.345093 -13.060791,3.756165c3.358643,12.344421 -15.473389,9.675903 -17.679932,0.567383c-1.997803,-5.066528 -9.334473,-12.03479 -9.509521,-2.294739c0.888428,9.141174 5.783691,17.695068 11.237061,24.953918c6.525269,7.689819 15.535156,15.285034 26.115723,15.234192c11.329224,-1.064636 18.831055,-12.231018 19.384033,-22.927429c4.483154,-8.50415 17.197998,-7.077515 21.564575,-16.238037c6.678223,-9.184326 6.089844,-24.774414 -4.699463,-30.630371c-6.812134,-7.394592 -9.901245,-21.41188 -22.727417,-19.731155c-5.10498,-0.167786 -10.169922,1.001221 -14.922852,2.794678l-0.000122,0.000061zm-4.772461,-57.902527c-8.585327,1.046387 -10.141968,19.214355 -17.925659,8.518127c-9.297485,-5.365112 -17.647461,4.512207 -21.963867,11.730774c-8.61451,15.886597 -5.830078,35.262085 0.239502,51.477371c4.934814,4.339233 -1.032104,-8.185852 0.67981,-10.858398c0.84314,-6.577652 1.863403,-19.643448 9.702759,-20.278091c2.095947,5.466187 7.635986,9.735779 9.654053,1.28241c5.533447,-9.037842 19.942505,-0.103333 9.633179,7.400513c-7.265015,8.235718 -18.160767,16.389725 -18.685913,28.030289c6.906128,-1.196411 11.854004,-12.544373 19.763794,-15.548462c8.969116,-6.344986 19.735474,-9.390701 29.023193,-15.044998c9.744019,-6.263672 10.56311,-20.990601 0.024048,-26.006287c-0.077637,-10.107727 -3.07959,-24.121216 -16.618652,-21.572327l-1.792725,0.338684l-1.733398,0.530396l0,0l-0.000122,0z" id="path7488"/>
  <path fill="#007fff" id="path7490" d="m18.088011,297.016449c-3.717531,-2.959778 -14.253661,2.030212 -12.174801,-6.265869c-2.13513,-3.793396 -9.83649,-7.59259 -3.39716,-11.838745c4.82691,-3.11145 -1.30432,-9.181274 4.51953,-11.785767c3.99201,-3.497314 6.58185,1.763489 4.43146,5.058777c1.29712,7.265503 10.61646,5.888489 15.278319,2.848633c4.70105,-1.519653 2.442261,-6.287109 -1.71472,-5.806824c-6.400389,-1.805725 -0.35767,-10.814392 3.633421,-5.286682c1.459959,5.340576 6.771608,10.183411 12.06922,6.136414c3.696411,-2.416138 0.571159,-5.577209 -2.677132,-5.742188c-4.736938,-2.048767 -1.50415,-10.816483 2.84827,-6.593689c2.14233,4.580322 4.588741,12.66394 11.295532,9.712036c4.567139,-2.503357 -0.28577,-6.603149 -2.919071,-7.985413c-3.21862,-5.493546 7.15332,-8.396378 6.119881,-1.471741c-0.756592,7.027283 6.10437,9.11499 11.735722,7.571533c10.293701,-1.256897 20.780754,-0.081604 30.846916,2.247803c9.881592,2.532959 19.689819,6.87561 26.989014,14.130615c3.532104,5.664124 -3.172119,13.827209 -9.433594,11.176941c-7.399895,-1.772705 -12.91333,-7.560059 -19.994141,-10.117004c-13.12793,-6.39209 -27.479858,-10.956482 -42.201908,-10.909668c-6.893669,1.249084 0.361938,11.694885 -6.201778,12.976868c-6.135372,-0.908875 -2.579952,-9.071716 0.46777,-10.695984c-2.368401,-4.9552 -11.773552,-0.724182 -11.29528,4.409912c0.879391,3.974243 -0.17054,11.55249 -5.68799,7.398926c-4.272221,-4.50354 5.911619,-5.993958 3.16321,-10.173828c-4.432991,-2.616211 -9.442511,2.545471 -12.682501,5.306763c-4.734369,4.802002 3.596931,9.451416 1.220581,14.460999c-1.007931,1.271729 -2.726931,1.531189 -4.23877,1.237183z"/>
 </g>
</svg>