<?xml version="1.0"?><svg width="640" height="480" xmlns="http://www.w3.org/2000/svg">
 <title>hibiscus bold colors</title>
 <metadata id="metadata8159">image/svg+xml</metadata>
 <g>
  <title>Layer 1</title>
  <path fill="#007fff" d="m217.445084,393.379974c-2.54277,-4.480713 -8.601257,-3.540741 -11.088531,-8.088654c1.73262,-4.949402 0.453232,-12.168884 -4.61412,-13.89743c-6.875626,-2.73587 -14.012146,1.710602 -18.933655,6.856171c-3.395859,2.987915 -6.796616,6.124512 -10.843796,7.968079c-3.113419,-4.127502 1.578506,-8.818634 5.004288,-10.15332c7.455093,-4.336029 16.347061,-7.148499 21.345367,-15.244354c2.198013,-4.13382 -0.885178,-11.462219 -5.643478,-9.835693c-4.640717,0.182281 -2.986832,-6.407928 -1.600662,-8.974396c-0.107117,-5.478577 -6.673416,-7.293091 -8.888596,-2.460388c-4.164093,3.003174 -9.86087,-1.276703 -13.658951,2.847107c-10.318237,9.537476 -14.228729,26.111938 -11.027222,40.36438c0.355713,2.364349 1.369659,5.890778 2.754654,2.04071c1.494476,-3.797424 0.166824,-8.337311 2.250549,-11.939026c1.325363,-4.020172 2.872559,-9.434235 7.249969,-10.220703c3.925156,-0.396088 4.874832,5.426971 3.570435,8.638184c-1.569672,4.210175 -4.024277,7.951111 -5.734848,12.106567c-0.62883,2.814758 -4.301941,6.518036 -1.758911,8.90741c3.062897,2.073944 6.274414,-0.935791 8.702072,-2.870941c2.669342,-3.248535 8.933487,-2.829315 9.745316,2.058655c-1.31105,3.915924 -0.320175,8.286255 3.807175,9.438934c5.307968,2.039337 0.878693,9.873383 -3.625946,8.13681c-5.666626,-1.495026 -11.162903,-4.448792 -17.099457,-4.458008c-2.53476,4.499786 5.506729,2.802246 7.583618,4.873657c9.022095,4.366058 16.178574,13.536713 26.38858,14.665588c4.85202,0.578949 7.7939,-4.638947 9.959564,-8.642334c2.644501,-3.912201 7.697891,-5.853485 8.646057,-11.077087c1.197113,-3.756683 0.598679,-8.612823 -2.489624,-11.040009l0.000153,0.000092zm-76.323883,-6.209595c-1.465927,-11.71698 -5.857895,-23.673126 -14.524681,-31.02832c-3.798996,-3.049072 -8.722107,-4.824463 -13.384987,-3.591858c-2.192955,1.138458 -1.972565,4.848145 -4.378746,5.654602c-2.803154,0.045685 -5.571968,-2.098999 -8.390297,-0.828796c-5.391762,2.317932 -8.438477,10.239563 -5.443802,15.94809c1.729095,1.754395 4.779099,4.440887 2.871132,7.344421c-1.928268,2.542664 -2.386139,6.748505 -0.13517,9.239136c3.794037,5.588684 10.880104,7.248474 16.746918,5.410614c6.163254,-1.275208 12.563049,-0.62558 18.511139,1.510101c1.968857,0.369659 4.51088,2.017334 6.050659,1.85788c0.253403,-3.085297 -3.052368,-3.656403 -4.920242,-4.823059c-6.179253,-4.011261 -13.301704,-6.711884 -18.21006,-12.755096c-1.605057,-2.471039 -0.685684,-7.036469 2.342171,-7.414673c4.180748,-0.311127 7.65654,2.732239 11.179916,4.750427c3.400253,2.447083 6.436768,5.611328 8.559326,9.47049c-1.315521,3.775146 5.777283,2.067719 3.126724,-0.74411l0,0.000153zm-8.001663,51.242004c3.921295,-9.133118 10.365479,-16.587769 17.376266,-22.891327c1.672089,4.905518 -2.694794,8.536438 -4.278702,12.607239c-2.702271,3.724731 3.010925,9.952393 5.134064,4.67514c4.871231,2.153015 -0.655273,9.922363 3.97879,12.950806c3.861343,3.945892 9.593567,-1.184113 8.808105,-6.323456c0.523056,-3.139862 -4.510284,-7.936005 -1.359314,-9.641449c2.722824,2.764954 8.491028,4.150696 9.379669,-1.290863c0.67363,-6.504913 -4.804794,-11.475861 -9.892868,-13.219635c-4.049026,-4.177185 3.968613,-5.840088 6.379349,-3.539948c10.639252,2.729553 19.804581,11.613281 23.907532,22.821808c1.647491,6.322998 -1.387695,13.464905 -6.506256,16.572083c-3.535675,3.819885 -10.608368,1.00592 -12.582092,7.031006c-1.175385,5.169678 -3.786621,9.687042 -7.700424,12.803345c-5.869003,4.637726 -15.043091,4.621429 -19.925354,-1.726624c-2.253922,-5.809143 -8.858276,-6.242279 -12.332642,-10.612427c-3.495407,-6.013519 -2.567947,-13.864441 -0.386124,-20.215607l0,-0.000092zm-39.946037,-3.661255c1.626953,-4.631409 5.614594,-7.550812 9.585983,-9.389893c-3.038887,-2.526276 -6.213776,-7.053589 -4.336456,-11.431122c4.504974,-9.486542 14.530052,-14.107147 23.841156,-13.896332c7.370979,-0.000763 14.767296,1.692261 21.561485,4.831573c2.034363,2.831757 -3.433014,0.028748 -4.654556,0.214874c-6.018143,-0.934082 -12.343506,0.734192 -17.36496,4.471863c-3.189384,3.491791 1.524529,4.148865 3.611618,5.116211c1.705856,3.556732 -3.71563,4.534027 -4.830978,7.459076c-2.377205,2.293854 -1.969109,7.615997 1.721611,7.662811c4.088699,0.119812 6.145058,-4.555878 8.929619,-7.094208c4.327194,-4.874237 9.56459,-9.265045 15.772308,-10.458252c1.027908,3.221344 -3.90387,4.318481 -4.989975,7.026093c-6.243683,7.097717 -10.504425,15.984894 -13.765732,25.146057c-2.084641,5.383148 -5.719185,10.933411 -11.345062,11.713684c-3.521599,0.715454 -8.089478,-1.185425 -8.626183,-5.551849c-1.959167,-3.478271 -6.464737,0.915649 -9.38623,-1.454987c-3.961632,-1.078522 -6.451256,-5.391541 -6.399551,-9.787994c-0.050354,-1.554932 0.16127,-3.127441 0.675995,-4.577637l-0.000092,0.000031z" id="svg_1" transform="rotate(-102.653 156.5 405.5)"/>
  <path transform="rotate(60.57404327392578 460.7821350097656,371.75885009765625) " fill="#abc837" d="m528.727844,460.070251c-23.619781,5.462433 -48.60202,16.642731 -72.841766,7.653595c-5.883331,1.410583 -25.837311,-4.68512 -12.005981,-9.053162c8.953033,-3.463043 30.381409,-1.577209 31.965912,-3.581512c-10.094635,-2.701538 -27.718842,0.84613 -33.36731,-1.572632c26.47699,-15.410645 62.447693,-12.498962 86.249146,6.553711zm6.784424,-43.218445c-14.05304,11.479675 -30.163239,26.262451 -50.027527,22.686523c-8.65094,-2.079742 -26.077698,4.523773 -29.613098,-1.804443c12.323517,-7.726318 27.226166,-9.05423 40.805573,-13.607452c-11.615051,-4.017548 -23.095917,3.257355 -34.659821,3.216858c7.728516,-8.25708 26.241302,-13.263519 39.850372,-14.08847c11.312897,-0.744965 22.756195,0.495239 33.644318,3.596924m5.859192,-33.856354c-13.996582,9.977478 -26.052856,26.592346 -45.105927,26.146698c-7.266266,-2.350555 -23.036194,8.654419 -24.803284,0.658783c11.384644,-7.733185 24.637878,-12.232117 37.916931,-15.690582c-13.766266,1.072693 -27.295471,4.764771 -39.726807,10.657745c18.325439,-18.275635 46.15799,-26.242615 71.719086,-21.772614m-74.622467,-77.12735c13.279175,45.784943 3.470154,96.744812 -22.683014,136.370178c-16.451752,21.379944 -39.759491,36.568359 -64.146088,47.95639c1.000244,-12.343201 15.67041,-13.24881 24.425079,-18.123688c9.315155,-7.397186 18.61142,-15.245972 26.546417,-24.257965c25.841827,-30.241882 38.611755,-70.118988 39.325043,-109.283722c-0.040344,-11.213531 -1.318939,-22.432648 -3.95636,-33.346588l0.283661,0.116058l0.205261,0.569336zm25.112457,197.611328c-24.388245,-2.057922 -50.609711,0.200775 -72.644562,-12.247223c-12.821716,4.484894 -13.064301,-17.452148 -0.061676,-10.522034c14.686554,-0.797638 29.284088,2.631805 42.881287,7.873108c-14.606995,-9.811523 -33.000671,-11.730682 -50.24762,-10.840607c24.986664,-10.792297 58.962189,-5.606964 74.476227,17.989044c1.957977,2.516541 3.802826,5.11618 5.596344,7.747589l0,0.000122zm-101.007233,-154.569977c25.577332,0.567139 52.986328,17.022186 57.694458,43.107086c5.55249,5.281555 -3.491608,20.859009 -5.219574,7.20752c-5.74408,-11.958923 -13.890045,-23.304474 -25.458405,-30.420013c12.465363,15.667572 25.059021,34.135193 23.132751,54.986023c-4.1875,-19.577728 -21.132904,-32.208588 -33.969208,-46.317261c-6.926758,-8.566864 -12.577911,-18.190033 -16.180206,-28.563385m1.303131,30.239624c22.685608,10.112061 41.831787,33.995697 37.391144,59.507141c-9.737396,-5.215851 -4.081726,-28.092773 -15.699402,-26.981537c4.278412,10.650635 6.936127,22.0961 5.354828,33.642456c-0.48938,5.550171 -5.024261,19.964569 -5.053955,7.305634c-4.352417,-25.361084 -23.427032,-46.935608 -21.992981,-73.473694m-20.350677,20.553772c18.319733,10.940948 36.35733,29.293976 34.465973,51.952271c3.481079,7.79126 -12.726105,21.292969 -8.753143,6.383423c1.599854,-11.111694 -4.879425,-29.856873 -9.057556,-34.054901c6.568634,14.804138 5.648163,31.584595 2.414398,47.070221c0.595642,-24.098633 -23.904663,-42.104279 -19.48291,-66.736816l0.164581,-2.310852l0.250763,-2.303345m178.897705,-41.876038c-17.652771,9.967285 -34.692261,22.797424 -55.422211,25.597931c-4.541534,4.621765 -21.525391,4.26474 -8.680573,-2.427551c6.225006,-5.517975 26.05957,-11.945343 25.037445,-14.853424c-11.111115,2.63147 -21.259583,8.023163 -32.158752,11.291687c16.444824,-19.631409 46.728668,-33.038574 71.224091,-19.608704l0,0.000061zm-12.859192,-35.479034c-15.108826,19.621307 -37.134979,32.218231 -58.173248,44.780212c7.786102,-13.683746 21.17746,-22.829681 33.597321,-32.110809c-10.653046,-0.217194 -21.312378,21.302185 -28.412842,13.631439c9.022827,-19.395752 32.726318,-26.992615 52.98877,-26.300842l0,0zm-4.038208,-37.14444c-1.721863,18.149841 -15.166565,33.597534 -31.826202,40.742645c-7.447937,4.009521 -16.953705,16.677612 -21.052429,17.786896c5.00943,-13.692902 15.649658,-24.207245 24.890717,-35.207977c-11.470123,4.95694 -16.23877,18.192322 -27.804047,23.011108c2.956696,-26.437164 29.224121,-46.877289 55.791962,-46.332672l0,0zm-30.057678,-26.527557c0.250916,15.787262 -4.922943,32.384796 -16.977966,43.309753c-0.17865,7.826416 -12.805634,11.577393 -6.475647,0.829224c1.956818,-4.31955 7.083649,-15.116669 3.84613,-15.583954c0.311798,5.75061 -11.409607,18.580719 -8.647095,5.46814c3.658966,-14.740936 14.65271,-27.148041 28.254578,-34.023163zm-54.316589,-18.637421c14.825287,5.173233 28.091553,20.346283 24.459656,36.549805c4.007202,6.081329 -9.476868,12.669556 -5.161835,3.165314c1.906311,-5.738464 -9.740417,-25.388474 -4.511292,-10.074066c3.587891,4.64566 1.50235,25.241852 -4.436371,13.588013c-6.131226,-13.533356 -12.520264,-28.05899 -10.35025,-43.229065l0.000092,0zm-49.183899,85.106659c28.590546,-1.641479 56.005737,21.681122 58.539825,49.693756c-5.78006,-8.714752 -15.133362,-25.186676 -21.305695,-27.030029c9.964539,11.755676 16.290192,26.118103 20.02179,40.877838c-10.960632,-18.661621 -28.639954,-31.975159 -44.892365,-45.844208c-4.665405,-5.513397 -8.477417,-11.647949 -12.363556,-17.697357l0,0zm65.167053,19.860138c-9.256348,-10.984039 -17.941315,-23.507446 -31.560455,-29.631897c13.561127,11.507538 24.189728,26.675323 28.955109,43.74231c-11.461334,-16.334839 -28.382202,-27.633087 -43.206543,-40.669281c-10.568878,-6.589447 -7.643219,-25.669983 6.671906,-17.540436c19.528412,7.133789 32.588379,25.357452 39.139984,44.099304zm-50.005096,-74.58844c25.596558,0.563843 48.541046,23.057617 48.89743,48.263123c-5.440887,-4.85257 -12.859802,-21.521637 -17.011719,-19.551758c3.287201,5.075867 14.59613,18.84256 9.94046,20.573181c-12.908752,-12.296173 -32.312469,-20.390533 -37.111481,-38.964966c-1.582825,-3.43338 -3.599579,-6.691589 -4.714691,-10.319611l0,0.000031z" id="path3416-4"/>
  <path fill="#ff0000" d="m257.313965,271.522614c2.959839,-3.717407 -2.030151,-14.253601 6.265869,-12.174744c3.793457,-2.135132 7.592651,-9.836502 11.838867,-3.397171c3.111328,4.82692 9.181152,-1.304321 11.785645,4.519547c3.497437,3.991943 -1.763428,6.581787 -5.058716,4.431396c-7.265503,1.297119 -5.888428,10.616577 -2.848633,15.27832c1.519653,4.70105 6.287109,2.442322 5.806763,-1.714661c1.805786,-6.400391 10.814453,-0.357666 5.286743,3.633423c-5.340576,1.4599 -10.18335,6.771545 -6.136353,12.069214c2.416138,3.69635 5.577148,0.571106 5.742188,-2.677185c2.048706,-4.736877 10.816406,-1.504028 6.593628,2.848267c-4.580322,2.142395 -12.66394,4.588745 -9.712036,11.295654c2.503418,4.567017 6.603149,-0.285889 7.985352,-2.919189c5.493652,-3.218506 8.396484,7.153381 1.471802,6.119995c-7.027222,-0.756592 -9.11499,6.104248 -7.571533,11.735657c1.256958,10.293701 0.081665,20.780823 -2.247803,30.846985c-2.532959,9.881531 -6.87561,19.689758 -14.130615,26.988953c-5.664063,3.532104 -13.827271,-3.172119 -11.17688,-9.433594c1.772705,-7.399963 7.560059,-12.913391 10.116943,-19.99408c6.39209,-13.128052 10.956543,-27.479919 10.909668,-42.202026c-1.249023,-6.893616 -11.694946,0.362 -12.976929,-6.201721c0.908936,-6.135437 9.071777,-2.580017 10.696045,0.467834c4.9552,-2.36853 0.724243,-11.773621 -4.409912,-11.295288c-3.974243,0.879272 -11.55249,-0.170593 -7.398926,-5.688049c4.50354,-4.272156 5.994019,5.911682 10.173828,3.163208c2.616211,-4.432983 -2.545532,-9.442444 -5.306763,-12.682495c-4.802002,-4.734436 -9.451416,3.596924 -14.460938,1.220581c-1.271729,-1.007874 -1.53125,-2.726868 -1.237305,-4.238831z" id="path6658"/>
  <path fill="#ff007f" id="path6656" d="m177.555664,362.313019c3.685791,-5.840759 12.467651,-4.615479 16.072998,-10.543823c-2.511475,-6.45166 -0.656982,-15.862488 6.688232,-18.115662c9.966309,-3.566284 20.310791,2.229797 27.44458,8.937195c4.922363,3.894836 9.851807,7.983459 15.718262,10.386597c4.512939,-5.38031 -2.288086,-11.4953 -7.253784,-13.235107c-10.806274,-5.652161 -23.695313,-9.318298 -30.94043,-19.87146c-3.186035,-5.38855 1.283081,-14.941345 8.180298,-12.821106c6.726807,0.23761 4.329468,-8.352905 2.32019,-11.698364c0.155273,-7.141479 9.673218,-9.506775 12.884155,-3.207214c6.035889,3.914734 14.293457,-1.664185 19.798828,3.711304c14.956421,12.432373 20.624756,34.037659 15.984131,52.616089c-0.515625,3.082031 -1.985352,7.678833 -3.99292,2.660156c-2.16626,-4.950073 -0.241821,-10.86792 -3.262207,-15.562866c-1.921143,-5.240417 -4.163818,-12.297791 -10.508911,-13.322998c-5.689575,-0.516296 -7.066162,7.074219 -5.175415,11.260132c2.275269,5.488098 5.833252,10.364502 8.312744,15.78125c0.911499,3.669128 6.235718,8.49646 2.549561,11.611084c-4.439697,2.70343 -9.094849,-1.219849 -12.61377,-3.742371c-3.869263,-4.234558 -12.949219,-3.68811 -14.125977,2.683533c1.900391,5.104492 0.464111,10.801331 -5.518555,12.303894c-7.69397,2.658325 -1.273682,12.870239 5.255859,10.606567c8.213867,-1.948792 16.180786,-5.799133 24.785889,-5.811157c3.674194,5.865601 -7.982056,3.652832 -10.992554,6.352966c-13.077637,5.691284 -23.45105,17.645508 -38.25061,19.117004c-7.033081,0.7547 -11.297363,-6.046997 -14.436523,-11.265503c-3.833252,-5.09967 -11.158203,-7.630188 -12.532593,-14.439331c-1.735229,-4.896912 -0.867798,-11.227051 3.608765,-14.39093l-0.000244,0.000122zm110.632568,-8.094421c2.124878,-15.273376 8.491089,-30.858582 21.053711,-40.446289c5.506714,-3.974548 12.642822,-6.288818 19.401733,-4.682068c3.178711,1.484009 2.859253,6.319702 6.347046,7.370911c4.063232,0.05957 8.07666,-2.736084 12.161865,-1.080322c7.81543,3.021484 12.231689,13.347534 7.890869,20.788757c-2.506348,2.286926 -6.927368,5.788818 -4.161743,9.573669c2.795044,3.314453 3.45874,8.796875 0.195923,12.043457c-5.499512,7.285034 -15.770874,9.448608 -24.274902,7.052917c-8.933716,-1.662292 -18.210327,-0.815491 -26.832153,1.968445c-2.853882,0.481873 -6.538574,2.629639 -8.770508,2.421814c-0.36731,-4.02179 4.424438,-4.766235 7.131958,-6.286987c8.956909,-5.228821 19.281006,-8.749146 26.395752,-16.626648c2.326538,-3.221069 0.993896,-9.172241 -3.39502,-9.665222c-6.060059,-0.405579 -11.098267,3.561523 -16.205444,6.192322c-4.928711,3.189819 -9.3302,7.314514 -12.40686,12.345032c1.90686,4.921021 -8.374268,2.695313 -4.532227,-0.969971l0,0.000183zm11.598511,66.79541c-5.68396,-11.905273 -15.024902,-21.62262 -25.187134,-29.839478c-2.423706,6.39447 3.906128,11.127502 6.202026,16.433899c3.916992,4.855286 -4.36438,12.973206 -7.441895,6.094177c-7.060913,2.806519 0.949829,12.934082 -5.767334,16.881714c-5.597046,5.143616 -13.906006,-1.543518 -12.767456,-8.242798c-0.758179,-4.092896 6.53772,-10.344788 1.970337,-12.567871c-3.946777,3.604187 -12.307861,5.410522 -13.595947,-1.682678c-0.97644,-8.47937 6.9646,-14.959106 14.339844,-17.232178c5.869141,-5.445068 -5.752563,-7.612732 -9.246948,-4.614441c-15.421753,3.558044 -28.707031,15.138245 -34.654297,29.748901c-2.388062,8.242188 2.011475,17.55188 9.430908,21.602173c5.125,4.979309 15.376953,1.311218 18.237915,9.1651c1.703735,6.738831 5.48877,12.627319 11.161865,16.689514c8.507202,6.04541 21.805176,6.02417 28.88208,-2.250671c3.26709,-7.572388 12.84021,-8.137024 17.876343,-13.833618c5.06665,-7.838806 3.72229,-18.072693 0.559692,-26.351624l0,-0.000122zm57.902344,-4.772522c-2.358276,-6.03717 -8.138428,-9.842712 -13.89502,-12.23999c4.404907,-3.293091 9.006958,-9.19458 6.285767,-14.900818c-6.530029,-12.365967 -21.061523,-18.389038 -34.558105,-18.114258c-10.684326,-0.000977 -21.405396,2.205933 -31.253662,6.298096c-2.948853,3.691284 4.976196,0.037476 6.746826,0.28009c8.723389,-1.21759 17.89209,0.957031 25.170776,5.829224c4.623047,4.551636 -2.209839,5.408142 -5.235107,6.669128c-2.472656,4.636292 5.385864,5.910217 7.002563,9.723083c3.445801,2.990112 2.854248,9.927673 -2.495483,9.988708c-5.926636,0.156189 -8.907349,-5.938721 -12.943604,-9.247498c-6.272339,-6.353699 -13.864014,-12.077271 -22.862183,-13.632629c-1.48999,4.199097 5.658691,5.629272 7.233032,9.158691c9.050293,9.252075 15.226318,20.836792 19.953613,32.778625c3.021729,7.01709 8.290039,14.252014 16.444824,15.269104c5.104614,0.932617 11.72583,-1.545227 12.503784,-7.237c2.839844,-4.533997 9.370728,1.193604 13.605469,-1.896606c5.742432,-1.405884 9.351196,-7.028015 9.276245,-12.758911c0.072998,-2.026917 -0.233765,-4.076721 -0.979858,-5.967102l0.000122,0.000061z"/>
  <g fill="#89a02c" id="g3876" transform="rotate(-45.09005355834961 103.00566101074216,143.18237304687497) ">
   <g fill="#89a02c" id="g3878">
    <g fill="#89a02c" id="g3884">
     <g fill="#89a02c" id="g3886">
      <path fill="#89a02c" d="m133.783569,137.278214c-4.655945,-3.553757 -9.934677,-7.581619 -17.293732,-8.490921c-1.353668,-0.167664 -1.4757,-0.466949 -1.476746,-0.470016l0,-0.003082c0,-0.014374 0.021545,-0.073013 0.14357,-0.161469c1.608398,-1.182884 14.006622,-2.476822 31.292847,6.962418c2.665314,1.456482 4.179871,4.27063 3.375641,6.272278c-0.67897,1.689957 -2.839127,2.298859 -5.925446,1.671432c-3.468491,-0.707642 -6.69841,-3.172104 -10.116135,-5.780579m-41.92067,16.069427c4.593399,-0.363113 16.302757,-0.358978 25.808968,7.506516c3.229919,2.674332 4.527443,5.491562 3.470604,7.538483c-1.015808,1.964554 -4.047058,2.776093 -7.727104,2.067444c-4.134544,-0.795166 -7.209999,-3.819183 -10.466927,-7.020111c-4.407639,-4.332336 -8.968613,-8.807678 -16.849052,-9.015427c0.725441,-0.312698 2.644829,-0.830063 5.763512,-1.076904m-14.926361,33.253876c-1.709999,-1.333054 -3.06044,-2.38736 -3.247169,-3.671021c-0.035652,-0.234482 0.051788,-0.415527 0.275284,-0.568771c1.196068,-0.825989 5.309006,-0.391937 9.525574,1.571671c3.355171,1.562454 11.199921,6.268143 11.560463,16.190857c0.049683,1.422455 -2.187073,4.158493 -4.567352,4.4496c-2.261551,0.275604 -4.019051,-1.744507 -4.949524,-5.690125c-1.609573,-6.831833 -5.648056,-9.982346 -8.597214,-12.282211m-50.06562,-58.637115l-0.006458,0l0.006458,0zm93.289223,-44.261681c-1.494003,4.982422 -2.905991,9.690239 -5.08992,13.700645c-4.147461,7.612495 -7.779999,9.301445 -9.628105,8.435341c-2.532539,-1.186966 -3.033485,-7.038567 0.572105,-14.423729c7.41301,-15.195183 6.554825,-27.502048 -2.417046,-34.651737c-0.080963,-0.064781 -0.193245,-0.078163 -0.288185,-0.034962c-43.203182,19.464783 -30.144279,50.019661 -25.227112,61.522209l1.022324,2.474762c2.055374,5.509071 1.040573,9.799225 -0.87664,11.608521c-1.136711,1.07077 -2.57563,1.343353 -4.163612,0.787872c-3.767479,-1.319672 -4.327797,-8.911575 -4.974419,-17.701805c-0.710274,-9.647049 -1.596603,-21.652588 -7.153942,-29.401878c-3.794491,-5.289978 -13.377331,-8.006432 -29.297878,-8.302689c-0.114441,-0.002075 -0.219151,0.065857 -0.258011,0.168686c-11.502232,29.926399 -4.93449,39.923195 16.766941,60.861908c7.965679,7.683426 8.05423,7.958084 10.332047,14.988434l0.474991,1.458542c0.735111,2.250519 0.51709,4.121536 -0.612099,5.268387c-1.006111,1.02034 -2.700951,1.40506 -4.426041,1.003906c-2.16983,-0.503998 -3.833302,-2.045853 -4.450741,-4.124603c-8.523808,-28.696243 -22.277889,-29.376129 -23.527988,-29.377144c-7.72604,-5.019455 -25.532571,1.913139 -29.207291,4.60186c-0.10035,0.075073 -0.13382,0.206726 -0.07769,0.316772c1.21124,2.386307 7.17008,22.156586 7.22945,22.355087c6.39834,16.612534 12.22871,19.789795 19.770201,22.466141c5.260439,1.867935 9.914259,1.895676 16.066359,0.093597c8.953472,-2.618713 12.768459,1.062546 14.818439,3.039459c0.84198,0.812561 1.450851,1.399857 2.022961,0.934982c0.205112,-0.166626 0.42432,-0.494766 0.310921,-1.115021c-0.401581,-2.206253 -4.798431,-6.845154 -12.95953,-9.792007c-14.84005,-5.366119 -23.923059,-16.694839 -26.16194,-22.574188c-0.452391,-1.188034 -0.47393,-1.847336 -0.34334,-2.069519c0.378979,-0.641861 1.13249,-0.990524 2.241049,-1.034729c5.72575,-0.229385 19.80044,7.994064 29.711401,21.909668c3.174889,4.454819 6.228798,6.473862 9.078728,5.999695c4.663494,-0.77652 6.892681,-7.794556 7.464855,-9.926788c1.903114,-7.091995 -0.533295,-20.092209 -13.077274,-35.310974c-8.586411,-10.423576 -11.008778,-22.216225 -9.625999,-28.762093c0.41674,-1.971771 1.160561,-3.330498 2.094261,-3.825272c0.410278,-0.217026 0.94997,-0.159462 1.60313,0.173843c5.437408,2.77095 15.877449,22.360214 16.469002,29.325714c1.682907,19.875175 8.233437,22.979424 10.201385,23.457741c1.851334,0.449493 3.656273,-0.227325 4.714233,-1.76297c12.93364,-18.840446 9.009621,-32.903137 6.413429,-42.207596c-0.68985,-2.472694 -1.285759,-4.606995 -1.517815,-6.511909c-0.983505,-8.096962 6.244957,-19.392769 9.502914,-21.482819c0.487976,-0.312714 0.878761,-0.421692 1.098938,-0.306496c1.599838,0.83622 1.54805,8.705856 1.123802,13.792175c-0.022659,1.553154 -0.834541,4.553505 -1.772591,8.027031c-2.178452,8.061989 -5.163254,19.103729 -1.6754,23.733337c0.986671,1.309387 2.442932,2.040695 4.327728,2.172356c12.81926,0.896927 23.052994,-19.734245 25.884544,-26.079536l1.075233,-2.453163c2.934052,-6.738228 8.394226,-19.280655 12.304291,-20.351425c0.519196,-0.14193 0.980118,-0.068924 1.411957,0.22319c3.594727,2.437721 -4.484268,14.346581 -7.935486,19.431877l-1.634369,2.475769c-1.164818,1.971779 -2.456947,5.353752 -1.251137,6.588074c0.623878,0.637711 1.75631,0.592445 3.369118,-0.13166c36.429199,-16.365685 51.022049,-10.489418 52.565765,-9.76532c0.674683,0.315781 0.902451,0.532806 0.993042,0.65416c-0.260193,0.014381 -0.792374,-0.037041 -1.37204,-0.093605c-17.117813,-1.714615 -38.591415,5.441147 -63.823929,21.2658c-37.577766,23.567795 -51.381477,59.779785 -56.26622,79.267227c-0.697361,2.763794 0.86787,4.400269 1.57394,4.975204c1.114033,0.909286 2.522793,1.261108 3.503002,0.87532c0.645508,-0.252991 1.03418,-0.803253 1.097832,-1.546936c0.057259,-0.652161 0.549438,-2.148682 1.71315,-2.615707c0.917625,-0.368195 2.067307,-0.017441 3.409119,1.041962c1.616051,1.272339 1.325607,3.931229 0.959724,7.298782c-0.483604,4.444519 -1.084976,9.975128 2.524902,14.917496c4.967964,6.807098 11.548615,10.876114 19.560799,12.092911c10.797295,1.639542 20.790283,-2.50972 23.938141,-4.775681c0.069038,-0.049408 0.112213,-0.123413 0.112213,-0.204712c-0.001053,-0.081238 -0.037758,-0.154251 -0.106812,-0.202591l-0.762177,-0.531815c-2.848816,-1.928574 -8.152405,-5.520309 -8.235565,-21.729675c-0.08744,-17.564957 -15.150909,-29.479019 -22.865082,-30.676224c-3.852814,-0.598663 -6.285995,-1.729065 -7.438904,-3.453995c-0.888443,-1.32991 -1.013702,-3.011642 -0.384346,-5.141876c0.425331,-1.442032 1.285683,-2.411972 2.555214,-2.882004c2.261551,-0.836227 5.796982,-0.040115 9.462997,2.130157c2.394363,1.416428 5.25721,5.501862 8.572433,10.233337c5.367249,7.658768 12.045151,17.190613 21.014832,22.178177c14.626282,8.136017 33.397903,-9.163574 33.585724,-9.339493c0.087448,-0.081238 0.106873,-0.20874 0.046417,-0.309555c-0.060425,-0.101837 -0.18457,-0.152237 -0.303299,-0.12236c-3.426361,0.850601 -5.843399,-3.928162 -9.189865,-10.540894c-5.65451,-11.176483 -14.19989,-28.065689 -35.466278,-27.86824c-11.762405,0.110046 -14.588554,-3.507416 -15.226555,-5.673615c-0.50193,-1.710541 0.846336,-3.149506 2.06514,-4.054672c4.485344,-3.332581 14.358543,-4.932007 19.891022,-1.919342c3.670288,1.99852 7.858833,6.401855 12.294609,11.064407c6.38205,6.709412 12.981094,13.648163 19.336182,14.99559c9.437088,2.002655 16.675156,-1.389557 24.336533,-4.978271l3.36911,-1.558304c0.064682,-0.030899 0.116501,-0.086395 0.14032,-0.154312c0.021561,-0.066864 0.015045,-0.139877 -0.019501,-0.201584c-2.315567,-4.038223 -3.842972,-7.907684 -5.319733,-11.649643c-4.861038,-12.320313 -8.700836,-22.051682 -36.669983,-23.757011c-2.016495,-0.123436 -3.743683,-1.725929 -3.851654,-3.57328c-0.136002,-2.3256 2.260452,-4.132828 6.410095,-4.832245c8.351135,-1.406075 16.095566,0.958641 23.584122,3.243118c8.860641,2.705162 17.230087,5.260147 26.503113,2.113708c8.771027,-2.97567 13.565048,-8.927032 17.064911,-13.27066c1.258698,-1.562386 2.345673,-2.911888 3.426376,-3.921959c0.076569,-0.07093 0.101379,-0.17791 0.064789,-0.272583c-2.333923,-6.079918 -12.8517,-23.596535 -26.0746,-26.246208c-11.936096,-2.389381 -21.962631,5.448372 -30.017975,11.747398c-5.084427,3.974426 -9.474854,7.406761 -12.750076,6.818451c-0.49118,-0.088448 -1.661346,-0.401161 -1.907532,-1.398849c-0.335693,-1.366951 0.927307,-4.188377 8.84877,-9.873291c18.471558,-13.255287 10.180847,-26.208096 9.81813,-26.752209c-0.046371,-0.07095 -0.126251,-0.1152 -0.213745,-0.119347c-26.703781,-1.314541 -31.388901,14.306469 -35.921799,29.414181" id="path3894"/>
     </g>
    </g>
   </g>
  </g>
  <path fill="#ff7f00" d="m108.878418,376.77475c-6.395508,-5.366882 -6.21228,-20.184265 -18.247314,-14.902161c-11.619637,-1.338928 -14.39843,-15.965332 -8.912354,-24.641541c4.692871,-9.621338 13.935791,-16.288025 17.823853,-26.380188c-9.148926,-4.994324 -13.784065,7.712463 -16.602409,14.217529c-4.447395,9.374451 -8.86084,20.737061 -19.128422,24.947937c-11.859501,3.709229 -7.560432,-16.039429 -17.161621,-12.460754c-9.685921,3.379028 -15.579111,-7.27887 -7.39307,-13.19989c0.1698,-10.564758 1.348881,-21.829468 12.465328,-26.908936c13.734135,-9.375854 32.027592,-11.82959 47.682255,-6.132202c-7.358032,7.179321 -20.233765,2.945068 -27.736816,10.656372c-7.695675,8.135864 4.777344,16.425232 11.757935,9.220886c7.482552,-1.967896 20.561157,-16.73114 24.884636,-5.56842c-3.756454,6.963196 -13.946884,22.256897 1.0448,22.899048c9.471443,-3.374084 10.522224,15.493652 18.53125,6.277344c4.960823,-9.08844 -3.966293,-17.33905 -4.331535,-26.510742c2.361702,-10.832336 5.441772,5.205872 7.355835,9.026184c5.983643,13.10199 19.301025,24.097778 17.751099,39.774109c-4.24707,8.966736 -15.140259,12.055298 -20.140503,20.634399c-5.577271,4.394714 -14.981445,5.266357 -19.643059,-0.948975l0.000114,0zm-8.094475,-110.632446c-18.518196,-2.497437 -38.838875,-11.840714 -45.268192,-30.745438c-4.513309,-10.497314 11.229252,-14.009644 5.989868,-23.386658c-0.606209,-11.695801 14.925289,-19.285706 23.315914,-10.715027c7.009888,7.369446 15.88221,-5.905396 22.200684,4.279114c7.775391,8.169067 4.604736,19.364197 3.564575,29.190186c-0.277954,9.052368 1.802856,18.027649 4.985596,26.455276c-6.12635,2.392517 -8.114021,-12.508255 -12.237801,-16.699051c-3.412094,-6.787842 -8.177605,-18.18158 -17.745476,-14.761658c-6.430168,6.921143 2.779541,15.992371 5.7771,22.761902c2.460815,4.090897 18.947021,12.609268 9.417847,13.621292l0,0l-0.000114,0.000061zm66.79528,-11.598526c-11.901733,5.689102 -21.626587,15.020767 -29.839478,25.187088c8.921265,3.695862 15.224487,-11.520935 23.733398,-5.586914c1.961304,4.824402 -2.805664,10.900574 5.887451,9.867065c11.127197,-3.904846 16.527344,13.336975 4.517334,15.048096c-6.272217,1.809204 -18.161377,-7.345093 -13.060791,3.756165c3.358643,12.344421 -15.473389,9.675903 -17.679932,0.567383c-1.997803,-5.066528 -9.334473,-12.03479 -9.509521,-2.294739c0.888428,9.141174 5.783691,17.695068 11.237061,24.953918c6.525269,7.689819 15.535156,15.285034 26.115723,15.234192c11.329224,-1.064636 18.831055,-12.231018 19.384033,-22.927429c4.483154,-8.50415 17.197998,-7.077515 21.564575,-16.238037c6.678223,-9.184326 6.089844,-24.774414 -4.699463,-30.630371c-6.812134,-7.394592 -9.901245,-21.41188 -22.727417,-19.731155c-5.10498,-0.167786 -10.169922,1.001221 -14.922852,2.794678l-0.000122,0.000061zm-4.772461,-57.902527c-8.585327,1.046387 -10.141968,19.214355 -17.925659,8.518127c-9.297485,-5.365112 -17.647461,4.512207 -21.963867,11.730774c-8.61451,15.886597 -5.830078,35.262085 0.239502,51.477371c4.934814,4.339233 -1.032104,-8.185852 0.67981,-10.858398c0.84314,-6.577652 1.863403,-19.643448 9.702759,-20.278091c2.095947,5.466187 7.635986,9.735779 9.654053,1.28241c5.533447,-9.037842 19.942505,-0.103333 9.633179,7.400513c-7.265015,8.235718 -18.160767,16.389725 -18.685913,28.030289c6.906128,-1.196411 11.854004,-12.544373 19.763794,-15.548462c8.969116,-6.344986 19.735474,-9.390701 29.023193,-15.044998c9.744019,-6.263672 10.56311,-20.990601 0.024048,-26.006287c-0.077637,-10.107727 -3.07959,-24.121216 -16.618652,-21.572327l-1.792725,0.338684l-1.733398,0.530396l0,0l-0.000122,0z" id="path7488"/>
  <path fill="#ff007f" id="path7490" d="m22.088011,298.016449c-3.717531,-2.959778 -14.253661,2.030212 -12.174801,-6.265869c-2.13513,-3.793396 -9.83649,-7.59259 -3.39716,-11.838745c4.82691,-3.11145 -1.30432,-9.181274 4.51953,-11.785767c3.99201,-3.497314 6.58185,1.763489 4.43146,5.058777c1.29712,7.265503 10.61646,5.888489 15.278319,2.848633c4.701052,-1.519653 2.442259,-6.287109 -1.71472,-5.806824c-6.400389,-1.805725 -0.35767,-10.814392 3.633419,-5.286682c1.459961,5.340576 6.77161,10.183411 12.069221,6.136414c3.696411,-2.416138 0.571159,-5.577209 -2.677132,-5.742188c-4.736938,-2.048767 -1.50415,-10.816483 2.84827,-6.593689c2.14233,4.580322 4.588741,12.66394 11.295532,9.712036c4.567139,-2.503357 -0.28577,-6.603149 -2.919071,-7.985413c-3.21862,-5.493546 7.15332,-8.396378 6.119881,-1.471741c-0.756592,7.027283 6.104359,9.11499 11.735706,7.571533c10.293716,-1.256897 20.780762,-0.081604 30.846931,2.247803c9.881592,2.532959 19.689819,6.87561 26.989014,14.130615c3.532104,5.664124 -3.172119,13.827209 -9.433594,11.176941c-7.399895,-1.772705 -12.91333,-7.560059 -19.994141,-10.117004c-13.12793,-6.39209 -27.479858,-10.956482 -42.201908,-10.909668c-6.893669,1.249084 0.361942,11.694885 -6.201778,12.976868c-6.135372,-0.908875 -2.579952,-9.071716 0.46777,-10.695984c-2.368401,-4.9552 -11.773552,-0.724182 -11.29528,4.409912c0.879391,3.974243 -0.17054,11.55249 -5.687992,7.398926c-4.272219,-4.50354 5.911621,-5.993958 3.163212,-10.173828c-4.432991,-2.616211 -9.442511,2.545471 -12.682501,5.306763c-4.734369,4.802002 3.596931,9.451416 1.220581,14.460999c-1.007931,1.271729 -2.726931,1.531189 -4.23877,1.237183z"/>
  <path fill="#677821" id="path6662" d="m235.824188,241.222061c-6.777496,-0.804459 -12.69043,-6.09671 -15.064713,-12.834442c-1.714447,-4.290146 -3.249405,-8.963089 -2.725845,-13.687317c0.344803,-1.133789 0.640854,-3.640228 1.525009,-1.406662c4.192245,6.394974 9.544754,12.132004 16.155014,15.633331c4.023407,2.179474 8.757965,2.551147 13.123993,1.498474c1.881683,-0.526886 5.297272,-1.77977 4.004272,-4.493622c-1.188873,-2.059753 -3.749756,-2.209396 -5.736603,-2.860138c-5.682281,-1.246521 -11.964691,-0.862411 -16.929077,-4.550995c-2.507019,-1.795303 -4.477325,-4.265228 -6.617889,-6.502472c3.919922,-0.174469 8.305481,-0.585358 11.144379,-3.843658c1.646027,-1.704117 2.557068,-4.029907 4.172211,-5.761826c2.851807,-1.529388 6.112335,0.003845 8.761688,1.327179c4.060181,2.098755 7.573944,5.545013 9.378632,10.002319c2.359131,4.946335 4.338715,10.101669 5.911072,15.389908c0.381042,2.70816 -1.793518,4.815155 -3.551544,6.408508c-5.670349,4.630356 -13.075256,6.071411 -20.073639,5.972137c-1.162506,-0.037415 -2.323425,-0.133209 -3.476959,-0.290756l0,0.000031zm-37.058609,42.963089c-7.418747,-4.326294 -12.670486,-12.727478 -13.309784,-21.744232c-0.518494,-6.582184 0.892776,-13.671722 4.993469,-18.780197c1.875107,-2.180725 4.370377,-3.80307 7.110855,-4.368225c-0.54538,3.677658 -2.361786,6.969193 -2.996658,10.630844c-1.358978,5.908966 -2.083511,12.504608 0.493515,18.162994c0.748917,1.915222 3.755753,6.047119 5.197891,2.727234c0.982925,-3.306549 0.712738,-6.864014 0.893936,-10.292694c0.249344,-8.109528 0.414948,-16.537933 3.534622,-24.084061c1.351151,-2.885452 3.552002,-5.809753 6.664093,-6.459839c2.973312,0.019531 4.894333,2.976761 6.371674,5.36261c3.678528,6.701385 3.047424,15.073227 0.572556,22.105942c-2.845963,8.966309 -9.359192,15.845428 -13.014023,24.36377c-0.213028,2.705383 -2.459915,5.095367 -4.877747,3.162842c-0.554016,-0.240082 -1.095566,-0.510986 -1.634399,-0.786987l0,0z" transform="rotate(-69.92437744140625 224.16168212890622,243.72427368164062) "/>
  <path fill="#ff00ff" d="m109.251328,403.645477c1.549576,-2.05835 -1.062851,-7.892334 3.28038,-6.741272c1.986,-1.18222 3.974998,-5.446564 6.198029,-1.881042c1.628883,2.672729 4.806633,-0.722229 6.170151,2.502533c1.831032,2.210358 -0.92321,3.644409 -2.648384,2.453705c-3.803734,0.718201 -3.082787,5.878479 -1.491356,8.459747c0.795586,2.603027 3.291512,1.352356 3.040024,-0.949432c0.945389,-3.543945 5.661713,-0.198029 2.767776,2.011871c-2.795959,0.80835 -5.331299,3.749451 -3.21257,6.682831c1.264923,2.046722 2.919815,0.316223 3.006226,-1.482361c1.072556,-2.622864 5.662735,-0.832794 3.451965,1.577118c-2.397942,1.186249 -6.629974,2.540833 -5.084572,6.254486c1.310631,2.528809 3.456978,-0.158295 4.180595,-1.616394c2.876114,-1.782104 4.395828,3.960938 0.770538,3.388733c-3.678978,-0.418945 -4.771988,3.379974 -3.963943,6.498138c0.658066,5.699738 0.042763,11.506531 -1.176788,17.080261c-1.326088,5.471497 -3.599602,10.902435 -7.397827,14.944061c-2.965324,1.95578 -7.239029,-1.756439 -5.851463,-5.22348c0.92807,-4.097443 3.957939,-7.150269 5.296555,-11.070923c3.346458,-7.269135 5.736099,-15.215881 5.711548,-23.367645c-0.653893,-3.817078 -6.122681,0.200439 -6.793831,-3.43396c0.475861,-3.397278 4.749359,-1.428589 5.599709,0.259033c2.594223,-1.311493 0.379173,-6.519165 -2.308716,-6.254303c-2.080643,0.486847 -6.048103,-0.094482 -3.873581,-3.149536c2.35775,-2.365509 3.138062,3.273346 5.326317,1.751495c1.369682,-2.45459 -1.332657,-5.228363 -2.778259,-7.02243c-2.514,-2.62149 -4.94812,1.991669 -7.570747,0.675842c-0.665794,-0.558044 -0.801674,-1.509857 -0.647774,-2.347076z" id="svg_2" transform="rotate(-129.188 120.5 428.5)"/>
 </g>
</svg>